<?xml version="1.0" encoding="UTF-8" standalone="no" ?>
<!DOCTYPE svg PUBLIC "-//W3C//DTD SVG 1.1//EN" "http://www.w3.org/Graphics/SVG/1.1/DTD/svg11.dtd">
<svg xmlns="http://www.w3.org/2000/svg" xmlns:xlink="http://www.w3.org/1999/xlink" version="1.1" width="1080" height="1080" viewBox="0 0 1080 1080" xml:space="preserve">
<desc>Created with Fabric.js 5.2.4</desc>
<defs>
</defs>
<rect x="0" y="0" width="100%" height="100%" fill="transparent"></rect>
<g transform="matrix(1 0 0 1 540 540)" id="36c292ef-fa3b-4463-936b-a613a5535536"  >
<rect style="stroke: none; stroke-width: 1; stroke-dasharray: none; stroke-linecap: butt; stroke-dashoffset: 0; stroke-linejoin: miter; stroke-miterlimit: 4; fill: rgb(255,255,255); fill-rule: nonzero; opacity: 1; visibility: hidden;" vector-effect="non-scaling-stroke"  x="-540" y="-540" rx="0" ry="0" width="1080" height="1080" />
</g>
<g transform="matrix(1 0 0 1 540 540)" id="682af177-2871-46c0-ae6c-7df943941ba9"  >
</g>
<g transform="matrix(0.94 0 0 1 529.32 540)"  >
<g style="" vector-effect="non-scaling-stroke"   >
		<g transform="matrix(1 0 0 1 0 0)"  >
<path style="stroke: none; stroke-width: 1; stroke-dasharray: none; stroke-linecap: butt; stroke-dashoffset: 0; stroke-linejoin: miter; stroke-miterlimit: 4; fill: rgb(0,246,239); fill-rule: nonzero; opacity: 1;" vector-effect="non-scaling-stroke"  transform=" translate(-25, -18.09)" d="M 25.2053 0.295692 L 49.1275 34.7437 C 49.4959 35.2742 49.1163 36 48.4704 36 L 1.52952 36 C 0.883665 36 0.504031 35.2742 0.872424 34.7437 L 24.7946 0.295692 C 24.8941 0.152491 25.1059 0.152491 25.2053 0.295692 Z" stroke-linecap="round" />
</g>
		<g transform="matrix(1 0 0 1 0 2.5)"  >
<path style="stroke: none; stroke-width: 1; stroke-dasharray: none; stroke-linecap: butt; stroke-dashoffset: 0; stroke-linejoin: miter; stroke-miterlimit: 4; fill: rgb(30,30,30); fill-rule: nonzero; opacity: 1;" vector-effect="non-scaling-stroke"  transform=" translate(-25, -20.6)" d="M 25.2063 11.3016 L 37.1435 28.7483 C 37.5068 29.2792 37.1266 30 36.4833 30 L 13.5167 30 C 12.8734 30 12.4932 29.2792 12.8564 28.7483 L 24.7937 11.3016 C 24.8929 11.1564 25.107 11.1564 25.2063 11.3016 Z" stroke-linecap="round" />
</g>
</g>
</g>
<g transform="matrix(1.07 0 0 1.16 553.54 540)"  >
<path style="stroke: rgb(0,0,0); stroke-width: 0; stroke-dasharray: none; stroke-linecap: butt; stroke-dashoffset: 0; stroke-linejoin: miter; stroke-miterlimit: 4; fill: rgb(254,0,78); fill-rule: nonzero; opacity: 1;" vector-effect="non-scaling-stroke"  transform=" translate(-19.42, -14.21)" d="M 18.5974 27.9963 L 0.541994 2.20283 C -0.107528 1.27495 0.556286 -0.0000132834 1.68892 -0.0000132339 L 37.1444 -0.0000116841 C 38.277 -0.0000116346 38.9409 1.27495 38.2913 2.20284 L 20.2359 27.9963 C 19.8378 28.565 18.9955 28.565 18.5974 27.9963 Z" stroke-linecap="round" />
</g>
</svg>